<mxfile host="app.diagrams.net" modified="2023-07-23T10:46:41.995Z" agent="Mozilla/5.0 (Macintosh; Intel Mac OS X 10_15_7) AppleWebKit/537.36 (KHTML, like Gecko) Chrome/114.0.0.0 Safari/537.36" version="21.5.0" etag="MeAo6xQWmocNutRVH-wL" type="github">
  <diagram name="Page-1" id="gS1lGw4ghUpdOXam-v53">
    <mxGraphModel>
      <root>
        <mxCell id="0" />
        <mxCell id="1" parent="0" />
      </root>
    </mxGraphModel>
  </diagram>
</mxfile>
